<svg xmlns="http://www.w3.org/2000/svg" viewBox="0 0 220 72">
  <!-- Bird icon - U/V shaped wings -->
  <g transform="translate(110,10)">
    <path d="M-16,12 C-16,12 -8,0 0,0 C8,0 16,12 16,12 C16,12 10,4 0,4 C-10,4 -16,12 -16,12Z" fill="#FF6B00"/>
    <path d="M-16,12 C-16,12 -10,4 0,4 C10,4 16,0 16,12" fill="none" stroke="#FF6B00" stroke-width="2.5" stroke-linecap="round"/>
    <line x1="0" y1="0" x2="0" y2="-5" stroke="#FF6B00" stroke-width="2.5" stroke-linecap="round"/>
  </g>
  <!-- YUKSALISH text -->
  <text x="110" y="46" font-family="Arial, Helvetica, sans-serif" font-weight="800" font-size="20" fill="#1a3a5c" text-anchor="middle" letter-spacing="1">YUKSALISH</text>
  <!-- MAKTABI with orange lines -->
  <g transform="translate(110,62)">
    <line x1="-65" y1="0" x2="-20" y2="0" stroke="#FF6B00" stroke-width="1.5"/>
    <text x="0" y="0" font-family="Arial, Helvetica, sans-serif" font-weight="700" font-size="10" fill="#1a3a5c" text-anchor="middle" letter-spacing="1.5" dominant-baseline="middle">MAKTABI</text>
    <line x1="20" y1="0" x2="65" y2="0" stroke="#FF6B00" stroke-width="1.5"/>
  </g>
</svg>
